<?xml version="1.0" encoding="utf-8"?>
<!-- Generator: Adobe Illustrator 28.3.0, SVG Export Plug-In . SVG Version: 6.00 Build 0)  -->
<svg version="1.1" id="Layer_1" xmlns="http://www.w3.org/2000/svg" xmlns:xlink="http://www.w3.org/1999/xlink" x="0px" y="0px"
	 viewBox="0 0 151 151" style="enable-background:new 0 0 151 151;" xml:space="preserve">
<style type="text/css">
	.st0{fill:#2196F3;}
	.st1{fill:#EEEEEE;}
</style>
<path class="st0" d="M75.53,0.5C34.22,0.33,0.65,33.78,0.5,75.28c-0.15,41.37,33.13,75.06,74.31,75.22
	c42.08,0.16,75.58-32.99,75.69-74.89C150.61,34.03,117.32,0.68,75.53,0.5z M89.02,126.1c0.01,2.26-0.82,2.83-2.95,2.79
	c-6.79-0.11-13.59-0.11-20.39,0.01c-2.2,0.04-2.86-0.69-2.84-2.88c0.08-16.41,0.07-32.83,0.01-49.25c-0.01-1.88,0.64-3.07,2.12-4.18
	c6.85-5.13,13.63-10.36,20.42-15.56c0.01,0,0.01-0.01,0.02-0.01c0.81-0.62,0.36-1.91-0.66-1.91c-6.67-0.01-12.84-0.05-19,0.04
	c-2.14,0.03-2.96-0.56-2.92-2.82c0.12-6.88,0.11-13.77-0.01-20.65c-0.03-2.06,0.59-2.76,2.7-2.72c6.97,0.11,13.95,0.11,20.92,0.01
	c2.02-0.03,2.57,0.7,2.57,2.61C88.99,63.08,88.97,94.59,89.02,126.1z"/>
<path class="st1" d="M89.02,126.1c0.01,2.26-0.82,2.83-2.95,2.79c-6.79-0.11-13.59-0.11-20.39,0.01c-2.2,0.04-2.86-0.69-2.84-2.88
	c0.08-16.41,0.07-32.83,0.01-49.25c-0.01-1.88,0.64-3.07,2.12-4.18c6.85-5.13,13.63-10.36,20.42-15.56c0.01,0,0.01-0.01,0.02-0.01
	c0.81-0.62,0.36-1.91-0.66-1.91c-6.67-0.01-12.84-0.05-19,0.04c-2.14,0.03-2.96-0.56-2.92-2.82c0.12-6.88,0.11-13.77-0.01-20.65
	c-0.03-2.06,0.59-2.76,2.7-2.72c6.97,0.11,13.95,0.11,20.92,0.01c2.02-0.03,2.57,0.7,2.57,2.61C88.99,63.08,88.97,94.59,89.02,126.1
	z"/>
</svg>
